<svg id="Layer_1" data-name="Layer 1" xmlns="http://www.w3.org/2000/svg" viewBox="0 0 293.72 160.97"><defs><style>.cls-1,.cls-3{font-size:84.62px;fill:#173457;font-family:Montserrat-Bold, Montserrat;font-weight:700;}.cls-1{letter-spacing:-0.01em;}.cls-2{letter-spacing:0em;}.cls-4{letter-spacing:0em;}.cls-5{letter-spacing:0em;}.cls-6{fill:#e3b823;stroke:#b97f2b;stroke-miterlimit:10;stroke-width:3px;}</style></defs><text class="cls-1" transform="translate(2.63 71.89)">o<tspan class="cls-2" x="54.07" y="0">wl </tspan></text><text class="cls-3" transform="translate(0 139.82)">pape<tspan class="cls-4" x="215.28" y="0">r</tspan><tspan class="cls-5" x="249.72" y="0">s</tspan></text><ellipse class="cls-6" cx="217.5" cy="40.58" rx="46" ry="38.96"/><path class="cls-6" d="M287.08,70.8a29.22,29.22,0,0,1-17.92,27.38,28.87,28.87,0,0,1-39-20.33,2.32,2.32,0,0,1,.31-1.93c4.79-7.74,11.53-13.19,19.69-17.06S267,52.34,275.38,49.1c.72-.28,1.09,0,1.53.44A28.45,28.45,0,0,1,287.08,70.8ZM248.33,60.34c-1.18.12-1.09,3.13-1.14,3.15a39.9,39.9,0,0,0-13.83,12.95,2.11,2.11,0,0,0-.28,1.91,26.1,26.1,0,1,0,43.2-25.74,1.27,1.27,0,0,0-1.52-.4c-3.47,1.3-7,2.52-10.44,3.79-2.1.77-9.67,1.8-11.77,2.59.07.06-1.29.62-1.33.83,0,0,0,.08.21.08,1,0,3.34-.67,5-.91a14.2,14.2,0,0,1,2.21-.18,12.7,12.7,0,0,1,8.87,4.06,12.91,12.91,0,1,1-20.23,2.31c1.06-1.58,2.62-3.67,4.4-4.63a15.51,15.51,0,0,1,4.43-1.51c2.15-.39,3.77-.23,3.59,0" transform="translate(-41.08 -34.06)"/><path class="cls-6" d="M250.21,60.15" transform="translate(-41.08 -34.06)"/><circle class="cls-6" cx="217.5" cy="37.68" r="3.84"/></svg>